# WaveFront *.obj file (generated by Autodesk ATF)

mtllib RefractionCrystal.mtl

g Solid1

v -2.500000 0.000000 0.000000
v -0.872865 0.000000 -1.250000
v -0.872865 0.000000 1.250000
v 0.000000 -3.000000 0.000000
v 0.000000 -1.047438 -1.250000
v 0.000000 -1.047438 1.250000
v 0.000000 1.047438 -1.250000
v 0.000000 1.047438 1.250000
v 0.000000 3.000000 0.000000
v 0.872865 0.000000 -1.250000
v 0.872865 0.000000 1.250000
v 2.500000 0.000000 0.000000
vt -3.160224 -0.940815 0.000000
vt 2.051463 -0.940815 0.000000
vt 3.809628 2.042890 0.000000
vt 1.875394 7.604912 0.000000
vt -1.875394 7.604912 0.000000
vt -3.809628 2.042890 0.000000
vt -2.051463 -0.940815 0.000000
vt 3.160224 -0.940815 0.000000
vt -2.051463 -0.940815 0.000000
vt 3.160224 -0.940815 0.000000
vt -1.875394 7.604912 0.000000
vt -3.809628 2.042890 0.000000
vt 3.809628 2.042890 0.000000
vt 1.875394 7.604912 0.000000
vt -3.160224 -0.940815 0.000000
vt 2.051463 -0.940815 0.000000
vt -2.051463 -0.940815 0.000000
vt 3.160224 -0.940815 0.000000
vt -1.875394 7.604912 0.000000
vt -3.809628 2.042890 0.000000
vt 3.809628 2.042890 0.000000
vt 1.875394 7.604912 0.000000
vt -3.160224 -0.940815 0.000000
vt 2.051463 -0.940815 0.000000
vt -3.160224 -0.940815 0.000000
vt 2.051463 -0.940815 0.000000
vt 3.809628 2.042890 0.000000
vt 1.875394 7.604912 0.000000
vt -1.875394 7.604912 0.000000
vt -3.809628 2.042890 0.000000
vt -2.051463 -0.940815 0.000000
vt 3.160224 -0.940815 0.000000
vt 0.054822 -2.797254 0.000000
vt -2.162254 -0.136763 0.000000
vt -4.379331 -2.797254 0.000000
vt -2.162254 -5.457746 0.000000
vt 2.162254 -0.136763 0.000000
vt -0.054822 -2.797254 0.000000
vt 2.162254 -5.457746 0.000000
vt 4.379331 -2.797254 0.000000
vn -1.379765 -1.149804 -1.796051
vn -1.379765 -1.149804 -1.796051
vn -1.379765 -1.149804 -1.796051
vn -1.379765 -1.149804 -1.796051
vn -1.379765 -1.149804 1.796051
vn -1.379765 -1.149804 1.796051
vn -1.379765 -1.149804 1.796051
vn -1.379765 -1.149804 1.796051
vn 1.379765 -1.149804 -1.796051
vn 1.379765 -1.149804 -1.796051
vn 1.379765 -1.149804 -1.796051
vn 1.379765 -1.149804 -1.796051
vn 1.379765 -1.149804 1.796051
vn 1.379765 -1.149804 1.796051
vn 1.379765 -1.149804 1.796051
vn 1.379765 -1.149804 1.796051
vn -1.379765 1.149804 -1.796051
vn -1.379765 1.149804 -1.796051
vn -1.379765 1.149804 -1.796051
vn -1.379765 1.149804 -1.796051
vn -1.379765 1.149804 1.796051
vn -1.379765 1.149804 1.796051
vn -1.379765 1.149804 1.796051
vn -1.379765 1.149804 1.796051
vn 1.379765 1.149804 -1.796051
vn 1.379765 1.149804 -1.796051
vn 1.379765 1.149804 -1.796051
vn 1.379765 1.149804 -1.796051
vn 1.379765 1.149804 1.796051
vn 1.379765 1.149804 1.796051
vn 1.379765 1.149804 1.796051
vn 1.379765 1.149804 1.796051
vn 0.000000 0.000000 2.540000
vn 0.000000 0.000000 2.540000
vn 0.000000 0.000000 2.540000
vn 0.000000 0.000000 2.540000
vn 0.000000 0.000000 -2.540000
vn 0.000000 0.000000 -2.540000
vn 0.000000 0.000000 -2.540000
vn 0.000000 0.000000 -2.540000
usemtl 191,191,191
f 1/1/1 2/2/2 4/4/4
f 4/4/4 2/2/2 5/3/3
f 6/6/6 3/7/7 4/5/5
f 4/5/5 3/7/7 1/8/8
f 12/10/10 4/11/11 10/9/9
f 10/9/9 4/11/11 5/12/12
f 6/13/13 4/14/14 11/16/16
f 11/16/16 4/14/14 12/15/15
f 1/18/18 9/19/19 2/17/17
f 2/17/17 9/19/19 7/20/20
f 8/21/21 9/22/22 3/24/24
f 3/24/24 9/22/22 1/23/23
f 12/25/25 10/26/26 9/28/28
f 9/28/28 10/26/26 7/27/27
f 8/30/30 11/31/31 9/29/29
f 9/29/29 11/31/31 12/32/32
f 11/33/33 8/34/34 6/36/36
f 6/36/36 8/34/34 3/35/35
f 10/38/38 5/39/39 7/37/37
f 7/37/37 5/39/39 2/40/40

# 12 vertices
# 40 texture params
# 40 normals
# 20 facets

# 1 groups
