# WaveFront *.obj file (generated by Autodesk ATF)

mtllib SidewalkSquare.mtl

g Solid1

v -12.000000 -11.500000 0.000000
v -12.000000 -11.500000 0.200000
v -12.000000 11.500000 0.000000
v -12.000000 11.500000 0.200000
v -11.961940 -11.691342 0.000000
v -11.961940 -11.691342 0.200000
v -11.961940 11.691342 0.000000
v -11.961940 11.691342 0.200000
v -11.853554 -11.853554 0.000000
v -11.853554 -11.853554 0.200000
v -11.853554 11.853554 0.000000
v -11.853554 11.853554 0.200000
v -11.691342 -11.961940 0.000000
v -11.691342 -11.961940 0.200000
v -11.691342 11.961940 0.000000
v -11.691342 11.961940 0.200000
v -11.500000 -12.000000 0.000000
v -11.500000 -12.000000 0.200000
v -11.500000 12.000000 0.000000
v -11.500000 12.000000 0.200000
v -11.000000 -11.000000 0.100000
v -11.000000 -11.000000 0.200000
v -11.000000 11.000000 0.100000
v -11.000000 11.000000 0.200000
v 11.000000 -11.000000 0.100000
v 11.000000 -11.000000 0.200000
v 11.000000 11.000000 0.100000
v 11.000000 11.000000 0.200000
v 11.500000 -12.000000 0.000000
v 11.500000 -12.000000 0.200000
v 11.500000 12.000000 0.000000
v 11.500000 12.000000 0.200000
v 11.691342 -11.961940 0.000000
v 11.691342 -11.961940 0.200000
v 11.691342 11.961940 0.000000
v 11.691342 11.961940 0.200000
v 11.853554 -11.853554 0.000000
v 11.853554 -11.853554 0.200000
v 11.853554 11.853554 0.000000
v 11.853554 11.853554 0.200000
v 11.961940 -11.691342 0.000000
v 11.961940 -11.691342 0.200000
v 11.961940 11.691342 0.000000
v 11.961940 11.691342 0.200000
v 12.000000 -11.500000 0.000000
v 12.000000 -11.500000 0.200000
v 12.000000 11.500000 0.000000
v 12.000000 11.500000 0.200000
vt -0.508000 0.997456 0.000000
vt -0.508000 0.498728 0.000000
vt -0.508000 0.000000 0.000000
vt -0.508000 -0.498728 0.000000
vt -0.508000 -0.997456 0.000000
vt -0.000000 -0.997456 0.000000
vt -0.000000 -0.498728 0.000000
vt -0.000000 0.000000 0.000000
vt -0.000000 0.498728 0.000000
vt -0.000000 0.997456 0.000000
vt 1.270000 0.508000 0.000000
vt 1.270000 0.000000 0.000000
vt 59.689999 0.000000 0.000000
vt 59.689999 0.508000 0.000000
vt 13.970000 -45.720001 0.000000
vt 14.456008 -45.623325 0.000000
vt 14.868026 -45.348026 0.000000
vt 15.143327 -44.936008 0.000000
vt 15.240000 -44.450001 0.000000
vt 15.240000 13.970000 0.000000
vt 15.143327 14.456008 0.000000
vt 14.868026 14.868026 0.000000
vt 14.456008 15.143327 0.000000
vt 13.970000 15.240000 0.000000
vt -44.450001 15.240000 0.000000
vt -44.936008 15.143327 0.000000
vt -45.348026 14.868026 0.000000
vt -45.623325 14.456008 0.000000
vt -45.720001 13.970000 0.000000
vt -45.720001 -44.450001 0.000000
vt -45.623325 -44.936008 0.000000
vt -45.348026 -45.348026 0.000000
vt -44.936008 -45.623325 0.000000
vt -44.450001 -45.720001 0.000000
vt -0.508000 0.997456 0.000000
vt -0.508000 0.498728 0.000000
vt -0.508000 0.000000 0.000000
vt -0.508000 -0.498728 0.000000
vt -0.508000 -0.997456 0.000000
vt -0.000000 -0.997456 0.000000
vt -0.000000 -0.498728 0.000000
vt -0.000000 0.000000 0.000000
vt -0.000000 0.498728 0.000000
vt -0.000000 0.997456 0.000000
vt -29.209999 0.508000 0.000000
vt -29.209999 0.000000 0.000000
vt 29.209999 0.000000 0.000000
vt 29.209999 0.508000 0.000000
vt -0.508000 0.997456 0.000000
vt -0.508000 0.498728 0.000000
vt -0.508000 0.000000 0.000000
vt -0.508000 -0.498728 0.000000
vt -0.508000 -0.997456 0.000000
vt -0.000000 -0.997456 0.000000
vt -0.000000 -0.498728 0.000000
vt -0.000000 0.000000 0.000000
vt -0.000000 0.498728 0.000000
vt -0.000000 0.997456 0.000000
vt -29.209999 0.508000 0.000000
vt -29.209999 0.000000 0.000000
vt 29.209999 0.000000 0.000000
vt 29.209999 0.508000 0.000000
vt -0.508000 0.997456 0.000000
vt -0.508000 0.498728 0.000000
vt -0.508000 0.000000 0.000000
vt -0.508000 -0.498728 0.000000
vt -0.508000 -0.997456 0.000000
vt -0.000000 -0.997456 0.000000
vt -0.000000 -0.498728 0.000000
vt -0.000000 0.000000 0.000000
vt -0.000000 0.498728 0.000000
vt -0.000000 0.997456 0.000000
vt 59.689999 0.000000 0.000000
vt 59.689999 0.508000 0.000000
vt 1.270000 0.508000 0.000000
vt 1.270000 0.000000 0.000000
vt 43.180000 -43.180000 0.000000
vt -12.700000 -43.180000 0.000000
vt -12.700000 12.700000 0.000000
vt 43.180000 12.700000 0.000000
vt -15.240000 -44.450001 0.000000
vt -15.143327 -44.936008 0.000000
vt -14.868026 -45.348026 0.000000
vt -14.456008 -45.623325 0.000000
vt -13.970000 -45.720001 0.000000
vt 44.450001 -45.720001 0.000000
vt 44.936008 -45.623325 0.000000
vt 45.348026 -45.348026 0.000000
vt 45.623325 -44.936008 0.000000
vt 45.720001 -44.450001 0.000000
vt 45.720001 13.970000 0.000000
vt 45.623325 14.456008 0.000000
vt 45.348026 14.868026 0.000000
vt 44.936008 15.143327 0.000000
vt 44.450001 15.240000 0.000000
vt -13.970000 15.240000 0.000000
vt -14.456008 15.143327 0.000000
vt -14.868026 14.868026 0.000000
vt -15.143327 14.456008 0.000000
vt -15.240000 13.970000 0.000000
vt -55.880001 0.000000 0.000000
vt -0.000000 0.000000 0.000000
vt -0.000000 0.254000 0.000000
vt -55.880001 0.254000 0.000000
vt -55.880001 0.000000 0.000000
vt -0.000000 0.000000 0.000000
vt -0.000000 0.254000 0.000000
vt -55.880001 0.254000 0.000000
vt -55.880001 0.000000 0.000000
vt -0.000000 0.000000 0.000000
vt -0.000000 0.254000 0.000000
vt -55.880001 0.254000 0.000000
vt -27.940001 0.000000 0.000000
vt 27.940001 0.000000 0.000000
vt 27.940001 0.254000 0.000000
vt -27.940001 0.254000 0.000000
vt -13.970000 13.970000 0.000000
vt -13.970000 -41.910000 0.000000
vt 41.910000 -41.910000 0.000000
vt 41.910000 13.970000 0.000000
vn 0.000000 -2.540000 0.000000
vn -0.972016 -2.346654 0.000000
vn -1.796051 -1.796051 0.000000
vn -2.346654 -0.972016 0.000000
vn -2.540000 0.000000 0.000000
vn -2.540000 0.000000 0.000000
vn -2.346654 -0.972016 0.000000
vn -1.796051 -1.796051 0.000000
vn -0.972016 -2.346654 0.000000
vn 0.000000 -2.540000 0.000000
vn 0.000000 -2.540000 0.000000
vn 0.000000 -2.540000 0.000000
vn 0.000000 -2.540000 0.000000
vn 0.000000 -2.540000 0.000000
vn 0.000000 0.000000 -2.540000
vn 0.000000 0.000000 -2.540000
vn 0.000000 0.000000 -2.540000
vn 0.000000 0.000000 -2.540000
vn 0.000000 0.000000 -2.540000
vn 0.000000 0.000000 -2.540000
vn 0.000000 0.000000 -2.540000
vn 0.000000 0.000000 -2.540000
vn 0.000000 0.000000 -2.540000
vn 0.000000 0.000000 -2.540000
vn 0.000000 0.000000 -2.540000
vn 0.000000 0.000000 -2.540000
vn 0.000000 0.000000 -2.540000
vn 0.000000 0.000000 -2.540000
vn 0.000000 0.000000 -2.540000
vn 0.000000 0.000000 -2.540000
vn 0.000000 0.000000 -2.540000
vn 0.000000 0.000000 -2.540000
vn 0.000000 0.000000 -2.540000
vn 0.000000 0.000000 -2.540000
vn 2.540000 0.000000 0.000000
vn 2.346654 -0.972016 0.000000
vn 1.796051 -1.796051 0.000000
vn 0.972016 -2.346654 0.000000
vn 0.000000 -2.540000 0.000000
vn 0.000000 -2.540000 0.000000
vn 0.972016 -2.346654 0.000000
vn 1.796051 -1.796051 0.000000
vn 2.346654 -0.972016 0.000000
vn 2.540000 0.000000 0.000000
vn 2.540000 0.000000 0.000000
vn 2.540000 0.000000 0.000000
vn 2.540000 0.000000 0.000000
vn 2.540000 0.000000 0.000000
vn 0.000000 2.540000 0.000000
vn 0.972016 2.346654 0.000000
vn 1.796051 1.796051 0.000000
vn 2.346654 0.972016 0.000000
vn 2.540000 0.000000 0.000000
vn 2.540000 0.000000 0.000000
vn 2.346654 0.972016 0.000000
vn 1.796051 1.796051 0.000000
vn 0.972016 2.346654 0.000000
vn 0.000000 2.540000 0.000000
vn 0.000000 2.540000 0.000000
vn 0.000000 2.540000 0.000000
vn 0.000000 2.540000 0.000000
vn 0.000000 2.540000 0.000000
vn -2.540000 0.000000 0.000000
vn -2.346654 0.972016 0.000000
vn -1.796051 1.796051 0.000000
vn -0.972016 2.346654 0.000000
vn 0.000000 2.540000 0.000000
vn 0.000000 2.540000 0.000000
vn -0.972016 2.346654 0.000000
vn -1.796051 1.796051 0.000000
vn -2.346654 0.972016 0.000000
vn -2.540000 0.000000 0.000000
vn -2.540000 0.000000 0.000000
vn -2.540000 0.000000 0.000000
vn -2.540000 0.000000 0.000000
vn -2.540000 0.000000 0.000000
vn 0.000000 0.000000 2.540000
vn 0.000000 0.000000 2.540000
vn 0.000000 0.000000 2.540000
vn 0.000000 0.000000 2.540000
vn 0.000000 0.000000 2.540000
vn 0.000000 0.000000 2.540000
vn 0.000000 0.000000 2.540000
vn 0.000000 0.000000 2.540000
vn 0.000000 0.000000 2.540000
vn 0.000000 0.000000 2.540000
vn 0.000000 0.000000 2.540000
vn 0.000000 0.000000 2.540000
vn 0.000000 0.000000 2.540000
vn 0.000000 0.000000 2.540000
vn 0.000000 0.000000 2.540000
vn 0.000000 0.000000 2.540000
vn 0.000000 0.000000 2.540000
vn 0.000000 0.000000 2.540000
vn 0.000000 0.000000 2.540000
vn 0.000000 0.000000 2.540000
vn 0.000000 0.000000 2.540000
vn 0.000000 0.000000 2.540000
vn 0.000000 0.000000 2.540000
vn 0.000000 0.000000 2.540000
vn 0.000000 2.540000 0.000000
vn 0.000000 2.540000 0.000000
vn 0.000000 2.540000 0.000000
vn 0.000000 2.540000 0.000000
vn -2.540000 0.000000 0.000000
vn -2.540000 0.000000 0.000000
vn -2.540000 0.000000 0.000000
vn -2.540000 0.000000 0.000000
vn 0.000000 -2.540000 0.000000
vn 0.000000 -2.540000 0.000000
vn 0.000000 -2.540000 0.000000
vn 0.000000 -2.540000 0.000000
vn 2.540000 0.000000 0.000000
vn 2.540000 0.000000 0.000000
vn 2.540000 0.000000 0.000000
vn 2.540000 0.000000 0.000000
vn 0.000000 0.000000 2.540000
vn 0.000000 0.000000 2.540000
vn 0.000000 0.000000 2.540000
vn 0.000000 0.000000 2.540000
usemtl 191,191,191
f 18/1/1 14/2/2 17/10/10
f 17/10/10 14/2/2 13/9/9
f 13/9/9 14/2/2 9/8/8
f 9/8/8 14/2/2 10/3/3
f 9/8/8 10/3/3 5/7/7
f 5/7/7 10/3/3 6/4/4
f 5/7/7 6/4/4 2/5/5
f 2/5/5 1/6/6 5/7/7
f 17/12/12 29/13/13 18/11/11
f 18/11/11 29/13/13 30/14/14
f 13/16/16 1/19/19 17/15/15
f 17/15/15 1/19/19 47/29/29
f 17/15/15 47/29/29 45/30/30
f 13/16/16 9/17/17 1/19/19
f 1/19/19 9/17/17 5/18/18
f 47/29/29 1/19/19 31/25/25
f 31/25/25 1/19/19 3/20/20
f 31/25/25 3/20/20 19/24/24
f 19/24/24 3/20/20 7/21/21
f 19/24/24 7/21/21 11/22/22
f 11/22/22 15/23/23 19/24/24
f 35/26/26 39/27/27 31/25/25
f 31/25/25 39/27/27 43/28/28
f 31/25/25 43/28/28 47/29/29
f 41/31/31 37/32/32 45/30/30
f 45/30/30 37/32/32 33/33/33
f 45/30/30 33/33/33 29/34/34
f 29/34/34 17/15/15 45/30/30
f 46/35/35 42/36/36 45/44/44
f 45/44/44 42/36/36 41/43/43
f 41/43/43 42/36/36 37/42/42
f 37/42/42 42/36/36 38/37/37
f 37/42/42 38/37/37 33/41/41
f 33/41/41 38/37/37 34/38/38
f 33/41/41 34/38/38 30/39/39
f 30/39/39 29/40/40 33/41/41
f 45/46/46 47/47/47 46/45/45
f 46/45/45 47/47/47 48/48/48
f 32/49/49 36/50/50 31/58/58
f 31/58/58 36/50/50 35/57/57
f 35/57/57 36/50/50 39/56/56
f 39/56/56 36/50/50 40/51/51
f 39/56/56 40/51/51 43/55/55
f 43/55/55 40/51/51 44/52/52
f 43/55/55 44/52/52 48/53/53
f 48/53/53 47/54/54 43/55/55
f 31/60/60 19/61/61 32/59/59
f 32/59/59 19/61/61 20/62/62
f 4/63/63 8/64/64 3/72/72
f 3/72/72 8/64/64 7/71/71
f 7/71/71 8/64/64 11/70/70
f 11/70/70 8/64/64 12/65/65
f 11/70/70 12/65/65 15/69/69
f 15/69/69 12/65/65 16/66/66
f 15/69/69 16/66/66 20/67/67
f 20/67/67 19/68/68 15/69/69
f 2/74/74 4/75/75 1/73/73
f 1/73/73 4/75/75 3/76/76
f 22/78/78 30/86/86 26/77/77
f 26/77/77 30/86/86 34/87/87
f 26/77/77 34/87/87 38/88/88
f 24/79/79 2/81/81 22/78/78
f 22/78/78 2/81/81 6/82/82
f 22/78/78 6/82/82 10/83/83
f 28/80/80 20/96/96 24/79/79
f 24/79/79 20/96/96 4/100/100
f 24/79/79 4/100/100 2/81/81
f 26/77/77 46/90/90 28/80/80
f 28/80/80 46/90/90 48/91/91
f 28/80/80 48/91/91 32/95/95
f 32/95/95 48/91/91 44/92/92
f 32/95/95 44/92/92 40/93/93
f 10/83/83 14/84/84 22/78/78
f 22/78/78 14/84/84 18/85/85
f 22/78/78 18/85/85 30/86/86
f 38/88/88 42/89/89 26/77/77
f 26/77/77 42/89/89 46/90/90
f 40/93/93 36/94/94 32/95/95
f 32/95/95 20/96/96 28/80/80
f 16/97/97 12/98/98 20/96/96
f 20/96/96 12/98/98 8/99/99
f 20/96/96 8/99/99 4/100/100
f 22/101/101 26/102/102 21/104/104
f 21/104/104 26/102/102 25/103/103
f 26/105/105 28/106/106 25/108/108
f 25/108/108 28/106/106 27/107/107
f 28/109/109 24/110/110 27/112/112
f 27/112/112 24/110/110 23/111/111
f 24/113/113 22/114/114 23/116/116
f 23/116/116 22/114/114 21/115/115
f 21/118/118 25/119/119 23/117/117
f 23/117/117 25/119/119 27/120/120

# 48 vertices
# 120 texture params
# 120 normals
# 92 facets

# 1 groups
